# xmcd
#
# Track frame offsets: 
#        150
#        16480
#        36407
#        51793
#        70885
#        85692
#        114533
#        130502
#
# Disc length: 1984 seconds
#
# Revision: 0
# Processed by: cddbd v1.5.2PL0 Copyright (c) Steve Scherf et al.
# Submitted via: ExactAudioCopy v1.1
#
DISCID=6307be08
DTITLE=Various Artist - Soul Searchin' CD2
DYEAR=2016
DGENRE=Soul
TTITLE0=Jimmy Barnes - I Testify
TTITLE1=Jimmy Barnes - Mustang Sally
TTITLE2=Jimmy Barnes with the Memphis Boys - More and More (with The M
TTITLE2=emphis Boys)
TTITLE3=Jimmy Barnes - Drowning in the Sea of Love
TTITLE4=Jimmy Barnes - In The Midnight Hour
TTITLE5=Jimmy Barnes feat Joe Bonamassa - In a Broken Dream (feat. Joe
TTITLE5=Bonamassa)
TTITLE6=Jimmy Barnes with the Memphis Boys - You've Got My Mind Messed
TTITLE6=Up (with The Memphis Boys)
TTITLE7=Jimmy Barnes with the Memphis Boys - Suspicious Minds (with Th
TTITLE7=e Memphis Boys)
EXTD=
EXTT0=
EXTT1=
EXTT2=
EXTT3=
EXTT4=
EXTT5=
EXTT6=
EXTT7=
PLAYORDER=
